<svg version="1.1" xmlns="http://www.w3.org/2000/svg" xmlns:xlink="http://www.w3.org/1999/xlink" width="50px" height="50px" viewBox="0,0,256,256"><g fill="#ffffff" fill-rule="nonzero" stroke="none" stroke-width="1" stroke-linecap="butt" stroke-linejoin="miter" stroke-miterlimit="10" stroke-dasharray="" stroke-dashoffset="0" font-family="none" font-weight="none" font-size="none" text-anchor="none" style="mix-blend-mode: normal"><g transform="translate(0,-10.47538) scale(5.12,5.12)"><path d="M22.5,5c-5.78516,0 -10.5,4.71094 -10.5,10.5c0,0.17188 0.02344,0.33203 0.03125,0.5c-0.01172,0 -0.01953,0 -0.03125,0c-4.40625,0 -8,3.59375 -8,8c0,4.40625 3.59375,8 8,8c0.35938,0.00391 0.69531,-0.18359 0.87891,-0.49609c0.17969,-0.3125 0.17969,-0.69531 0,-1.00781c-0.18359,-0.3125 -0.51953,-0.5 -0.87891,-0.49609c-3.32422,0 -6,-2.67578 -6,-6c0,-3.32422 2.67578,-6 6,-6c0.32422,0 0.63281,0.03906 0.96875,0.09375l1.40625,0.21875l-0.25,-1.375c-0.08203,-0.48047 -0.125,-0.96094 -0.125,-1.4375c0,-4.70703 3.79297,-8.5 8.5,-8.5c4.25,0 7.73438,3.09766 8.375,7.15625l0.21875,1.375l1.25,-0.625c1.10547,-0.57031 2.33203,-0.90625 3.65625,-0.90625c4.42969,0 8,3.57031 8,8c0,4.42969 -3.57031,8 -8,8c-0.35937,-0.00391 -0.69531,0.18359 -0.87891,0.49609c-0.17969,0.3125 -0.17969,0.69531 0,1.00781c0.18359,0.3125 0.51953,0.5 0.87891,0.49609c5.51172,0 10,-4.48828 10,-10c0,-5.51172 -4.48828,-10 -10,-10c-1.25391,0 -2.42578,0.29688 -3.53125,0.71875c-1.23828,-4.42187 -5.16016,-7.71875 -9.96875,-7.71875zM23.90625,17.96875c-0.04297,0.00781 -0.08594,0.01953 -0.125,0.03125c-0.46484,0.10547 -0.79297,0.52344 -0.78125,1v1h-0.5c-0.03125,0 -0.0625,0 -0.09375,0c-0.55078,0.02734 -0.98047,0.49609 -0.95312,1.04688c0.02734,0.55078 0.49609,0.98047 1.04688,0.95313h0.5v3.25l-2.84375,-1.625l0.25,-0.4375c0.1875,-0.32031 0.17969,-0.71875 -0.01562,-1.03125c-0.19922,-0.31641 -0.55078,-0.49609 -0.92187,-0.46875c-0.32812,0.02734 -0.61719,0.21484 -0.78125,0.5l-0.25,0.4375l-0.875,-0.5c-0.19922,-0.11719 -0.42969,-0.16016 -0.65625,-0.125c-0.43359,0.05469 -0.77734,0.38281 -0.85937,0.8125c-0.07812,0.42969 0.13281,0.85938 0.51563,1.0625l0.875,0.5l-0.25,0.4375c-0.22656,0.30859 -0.25781,0.71875 -0.08203,1.05859c0.17969,0.33984 0.53516,0.54688 0.91797,0.53516c0.38672,-0.01172 0.72656,-0.24219 0.88281,-0.59375l0.25,-0.4375l2.8125,1.625l-2.8125,1.625l-0.25,-0.4375c-0.19922,-0.35547 -0.59766,-0.55078 -1,-0.5c-0.33203,0.04688 -0.61719,0.25781 -0.76172,0.55859c-0.14453,0.30078 -0.12891,0.65234 0.04297,0.94141l0.25,0.4375l-0.875,0.5c-0.48437,0.27734 -0.65234,0.89063 -0.375,1.375c0.27734,0.48438 0.89063,0.65234 1.375,0.375l0.875,-0.5l0.25,0.4375c0.15625,0.35156 0.49609,0.58203 0.88281,0.59375c0.38281,0.01172 0.73828,-0.19531 0.91797,-0.53516c0.17578,-0.33984 0.14453,-0.75 -0.08203,-1.05859l-0.25,-0.4375l2.84375,-1.625v3.25h-0.5c-0.03125,0 -0.0625,0 -0.09375,0c-0.55078,0.02734 -0.98047,0.49609 -0.95312,1.04688c0.02734,0.55078 0.49609,0.98047 1.04688,0.95313h0.5v1c-0.00391,0.35938 0.18359,0.69531 0.49609,0.87891c0.3125,0.17969 0.69531,0.17969 1.00781,0c0.3125,-0.18359 0.5,-0.51953 0.49609,-0.87891v-1h0.5c0.35938,0.00391 0.69531,-0.18359 0.87891,-0.49609c0.17969,-0.3125 0.17969,-0.69531 0,-1.00781c-0.18359,-0.3125 -0.51953,-0.5 -0.87891,-0.49609h-0.5v-3.25l2.84375,1.625l-0.25,0.4375c-0.22656,0.30859 -0.25781,0.71875 -0.08203,1.05859c0.17969,0.33984 0.53516,0.54688 0.91797,0.53516c0.38672,-0.01172 0.72656,-0.24219 0.88281,-0.59375l0.25,-0.4375l0.875,0.5c0.48438,0.27734 1.09766,0.10938 1.375,-0.375c0.27734,-0.48437 0.10938,-1.09766 -0.375,-1.375l-0.875,-0.5l0.25,-0.4375c0.1875,-0.32031 0.17969,-0.71875 -0.01562,-1.03125c-0.19922,-0.31641 -0.55078,-0.49609 -0.92187,-0.46875c-0.32812,0.02734 -0.61719,0.21484 -0.78125,0.5l-0.25,0.4375l-2.8125,-1.625l2.8125,-1.625l0.25,0.4375c0.15625,0.35156 0.49609,0.58203 0.88281,0.59375c0.38281,0.01172 0.73828,-0.19531 0.91797,-0.53516c0.17578,-0.33984 0.14453,-0.75 -0.08203,-1.05859l-0.25,-0.4375l0.875,-0.5c0.45703,-0.22266 0.67188,-0.75 0.50391,-1.23047c-0.16406,-0.47656 -0.66406,-0.75391 -1.16016,-0.64453c-0.12109,0.01953 -0.23828,0.0625 -0.34375,0.125l-0.875,0.5l-0.25,-0.4375c-0.19922,-0.35547 -0.59766,-0.55078 -1,-0.5c-0.33203,0.04688 -0.61719,0.25781 -0.76172,0.55859c-0.14453,0.30078 -0.12891,0.65234 0.04297,0.94141l0.25,0.4375l-2.84375,1.625v-3.25h0.5c0.35938,0.00391 0.69531,-0.18359 0.87891,-0.49609c0.17969,-0.3125 0.17969,-0.69531 0,-1.00781c-0.18359,-0.3125 -0.51953,-0.5 -0.87891,-0.49609h-0.5v-1c0.01172,-0.28906 -0.10547,-0.56641 -0.3125,-0.76172c-0.21094,-0.19922 -0.49609,-0.29687 -0.78125,-0.26953zM40.15625,33.96875c-0.0625,0.00391 -0.125,0.01563 -0.1875,0.03125c-0.29297,0.05859 -0.54687,0.25 -0.6875,0.51563c-0.13672,0.26953 -0.14844,0.58203 -0.03125,0.85938l0.4375,1.09375l-1.0625,0.4375c-0.36719,0.10938 -0.63672,0.41406 -0.70312,0.78906c-0.0625,0.375 0.08984,0.75391 0.39844,0.98047c0.30859,0.22266 0.71875,0.25 1.05469,0.07422l1.09375,-0.4375l0.4375,1.0625c0.10938,0.36719 0.41406,0.63672 0.78906,0.70313c0.375,0.0625 0.75391,-0.08984 0.98047,-0.39844c0.22266,-0.30859 0.25,-0.71875 0.07422,-1.05469l-0.4375,-1.09375l1.0625,-0.4375c0.46875,-0.17187 0.73828,-0.65625 0.63672,-1.14453c-0.10156,-0.48828 -0.54687,-0.82422 -1.04297,-0.79297c-0.12109,0.01172 -0.23437,0.04297 -0.34375,0.09375l-1.09375,0.4375l-0.4375,-1.0625c-0.14453,-0.39453 -0.51953,-0.65625 -0.9375,-0.65625zM8.15625,34.96875c-0.0625,0.00391 -0.125,0.01563 -0.1875,0.03125c-0.29297,0.05859 -0.54687,0.25 -0.6875,0.51563c-0.13672,0.26953 -0.14844,0.58203 -0.03125,0.85938l0.4375,1.09375l-1.0625,0.4375c-0.36719,0.10938 -0.63672,0.41406 -0.70312,0.78906c-0.0625,0.375 0.08984,0.75391 0.39844,0.98047c0.30859,0.22266 0.71875,0.25 1.05469,0.07422l1.09375,-0.4375l0.4375,1.0625c0.10938,0.36719 0.41406,0.63672 0.78906,0.70313c0.375,0.0625 0.75391,-0.08984 0.98047,-0.39844c0.22266,-0.30859 0.25,-0.71875 0.07422,-1.05469l-0.4375,-1.09375l1.0625,-0.4375c0.46875,-0.17187 0.73828,-0.65625 0.63672,-1.14453c-0.10156,-0.48828 -0.54687,-0.82422 -1.04297,-0.79297c-0.12109,0.01172 -0.23437,0.04297 -0.34375,0.09375l-1.09375,0.4375l-0.4375,-1.0625c-0.14453,-0.39453 -0.51953,-0.65625 -0.9375,-0.65625zM25.15625,38.96875c-0.0625,0.00391 -0.125,0.01563 -0.1875,0.03125c-0.29297,0.05859 -0.54687,0.25 -0.6875,0.51563c-0.13672,0.26953 -0.14844,0.58203 -0.03125,0.85938l0.4375,1.09375l-1.0625,0.4375c-0.36719,0.10938 -0.63672,0.41406 -0.70312,0.78906c-0.0625,0.375 0.08984,0.75391 0.39844,0.98047c0.30859,0.22266 0.71875,0.25 1.05469,0.07422l1.09375,-0.4375l0.4375,1.0625c0.10938,0.36719 0.41406,0.63672 0.78906,0.70313c0.375,0.0625 0.75391,-0.08984 0.98047,-0.39844c0.22266,-0.30859 0.25,-0.71875 0.07422,-1.05469l-0.4375,-1.09375l1.0625,-0.4375c0.46875,-0.17187 0.73828,-0.65625 0.63672,-1.14453c-0.10156,-0.48828 -0.54687,-0.82422 -1.04297,-0.79297c-0.12109,0.01172 -0.23437,0.04297 -0.34375,0.09375l-1.09375,0.4375l-0.4375,-1.0625c-0.14453,-0.39453 -0.51953,-0.65625 -0.9375,-0.65625zM15.15625,42.96875c-0.0625,0.00391 -0.125,0.01563 -0.1875,0.03125c-0.29297,0.05859 -0.54687,0.25 -0.6875,0.51563c-0.13672,0.26953 -0.14844,0.58203 -0.03125,0.85938l0.4375,1.09375l-1.0625,0.4375c-0.36719,0.10938 -0.63672,0.41406 -0.70312,0.78906c-0.0625,0.375 0.08984,0.75391 0.39844,0.98047c0.30859,0.22266 0.71875,0.25 1.05469,0.07422l1.09375,-0.4375l0.4375,1.0625c0.10938,0.36719 0.41406,0.63672 0.78906,0.70313c0.375,0.0625 0.75391,-0.08984 0.98047,-0.39844c0.22266,-0.30859 0.25,-0.71875 0.07422,-1.05469l-0.4375,-1.09375l1.0625,-0.4375c0.46875,-0.17187 0.73828,-0.65625 0.63672,-1.14453c-0.10156,-0.48828 -0.54687,-0.82422 -1.04297,-0.79297c-0.12109,0.01172 -0.23437,0.04297 -0.34375,0.09375l-1.09375,0.4375l-0.4375,-1.0625c-0.14453,-0.39453 -0.51953,-0.65625 -0.9375,-0.65625zM35.15625,42.96875c-0.0625,0.00391 -0.125,0.01563 -0.1875,0.03125c-0.29297,0.05859 -0.54687,0.25 -0.6875,0.51563c-0.13672,0.26953 -0.14844,0.58203 -0.03125,0.85938l0.4375,1.09375l-1.0625,0.4375c-0.36719,0.10938 -0.63672,0.41406 -0.70312,0.78906c-0.0625,0.375 0.08984,0.75391 0.39844,0.98047c0.30859,0.22266 0.71875,0.25 1.05469,0.07422l1.09375,-0.4375l0.4375,1.0625c0.10938,0.36719 0.41406,0.63672 0.78906,0.70313c0.375,0.0625 0.75391,-0.08984 0.98047,-0.39844c0.22266,-0.30859 0.25,-0.71875 0.07422,-1.05469l-0.4375,-1.09375l1.0625,-0.4375c0.46875,-0.17187 0.73828,-0.65625 0.63672,-1.14453c-0.10156,-0.48828 -0.54687,-0.82422 -1.04297,-0.79297c-0.12109,0.01172 -0.23437,0.04297 -0.34375,0.09375l-1.09375,0.4375l-0.4375,-1.0625c-0.14453,-0.39453 -0.51953,-0.65625 -0.9375,-0.65625z"></path></g></g></svg>